<?xml version="1.0" encoding="iso-8859-1"?>
<!-- Generator: Adobe Illustrator 18.0.0, SVG Export Plug-In . SVG Version: 6.00 Build 0)  -->
<!DOCTYPE svg PUBLIC "-//W3C//DTD SVG 1.1//EN" "http://www.w3.org/Graphics/SVG/1.1/DTD/svg11.dtd">
<svg version="1.1" id="Capa_1" xmlns="http://www.w3.org/2000/svg" xmlns:xlink="http://www.w3.org/1999/xlink" x="0px" y="0px"
	 viewBox="0 0 297.5 297.5" style="enable-background:new 0 0 297.5 297.5;" xml:space="preserve">
<g>
	<g id="XMLID_29_">
		<g>
			<path style="fill:#F5B543;" d="M212.458,131.12v24.51c-13.78-3.649-35.96-6.21-58.4,5.01c-29.79,14.891-55.649,27.82-81.64,4.48
				v-11.78c0-1.5-0.35-2.979-1.03-4.32l-8.939-17.899h0.31H212.458z"/>
			<path style="fill:#734502;" d="M212.458,175.83v47.53H72.418V189.02c9.58,5.561,19.76,8.32,30.7,8.32
				c2.83,0,5.71-0.189,8.64-0.55c17.58-2.2,34.54-10.68,50.93-18.88C182.628,167.95,203.039,172.64,212.458,175.83z"/>
			<polygon style="fill:#F5B543;" points="230.819,242.68 241.109,277.93 43.768,277.93 54.058,242.68 			"/>
			<path style="fill:#734502;" d="M226.918,19.57l-13.17,92.239H71.128L57.958,19.57H226.918z M199.899,89.59
				c0-2.54-1.02-5.03-2.83-6.83c-1.79-1.79-4.28-2.83-6.82-2.83c-2.54,0-5.04,1.04-6.83,2.83c-1.8,1.8-2.83,4.29-2.83,6.83
				c0,2.54,1.03,5.03,2.83,6.83c1.79,1.8,4.29,2.83,6.83,2.83c2.54,0,5.03-1.03,6.82-2.83
				C198.878,94.62,199.899,92.13,199.899,89.59z M168.029,89.59c0-2.54-1.02-5.03-2.83-6.83c-1.79-1.79-4.28-2.83-6.83-2.83
				c-2.54,0-5.03,1.04-6.83,2.83c-1.79,1.8-2.83,4.29-2.83,6.83c0,2.54,1.04,5.03,2.83,6.83c1.8,1.8,4.29,2.83,6.83,2.83
				c2.54,0,5.04-1.03,6.83-2.83C167.008,94.61,168.029,92.13,168.029,89.59z"/>
			<path d="M271.899,135.86c4.029,5.159,5.359,12.04,3.649,18.88l-8.439,33.76c-3.12,12.51-15.671,22.31-28.57,22.31h-6.76v12.551
				h6.279c4.29,0,8.07,2.83,9.27,6.949l15.939,54.57c0.851,2.92,0.28,6.07-1.55,8.51c-1.819,2.431-4.68,3.86-7.72,3.86H30.878
				c-3.04,0-5.9-1.43-7.72-3.86c-1.83-2.439-2.4-5.59-1.55-8.51l15.939-54.57c1.2-4.119,4.98-6.949,9.271-6.949h6.279v-67.74
				l-14.92-29.84c-1.5-2.99-1.34-6.55,0.42-9.391c1.761-2.85,4.87-4.58,8.221-4.58h4.8l-14.36-100.54
				C36.859,8.5,37.688,5.7,39.518,3.58c1.841-2.12,4.5-3.33,7.301-3.33h191.239c2.801,0,5.46,1.21,7.301,3.33
				c1.829,2.12,2.659,4.92,2.26,7.689l-15.84,116.471h22.699C261.518,127.74,267.878,130.7,271.899,135.86z M256.808,150.05
				c0.261-1.01,0.21-1.87-0.13-2.3c-0.34-0.43-1.16-0.69-2.2-0.69h-22.699v44.431h6.76c4.07,0,8.85-3.73,9.83-7.681L256.808,150.05z
				 M241.109,277.93l-10.29-35.25H54.058l-10.29,35.25H241.109z M213.749,111.81l13.17-92.239H57.958l13.17,92.239H213.749z
				 M212.458,223.36v-47.53c-9.42-3.19-29.83-7.88-49.771,2.08c-16.39,8.2-33.35,16.68-50.93,18.88c-2.93,0.36-5.809,0.55-8.64,0.55
				c-10.94,0-21.12-2.76-30.7-8.32v34.341H212.458z M212.458,155.63v-24.51h-149.7h-0.31l8.939,17.899
				c0.681,1.341,1.03,2.82,1.03,4.32v11.78c25.99,23.34,51.85,10.41,81.64-4.48C176.499,149.42,198.678,151.98,212.458,155.63z"/>
			<path d="M197.069,82.76c1.81,1.8,2.83,4.29,2.83,6.83c0,2.54-1.02,5.03-2.83,6.83c-1.79,1.8-4.28,2.83-6.82,2.83
				c-2.54,0-5.04-1.03-6.83-2.83c-1.8-1.8-2.83-4.29-2.83-6.83c0-2.54,1.03-5.03,2.83-6.83c1.79-1.79,4.29-2.83,6.83-2.83
				C192.789,79.93,195.279,80.97,197.069,82.76z"/>
			<path d="M165.199,82.76c1.81,1.8,2.83,4.29,2.83,6.83c0,2.54-1.02,5.021-2.83,6.83c-1.79,1.8-4.29,2.83-6.83,2.83
				c-2.54,0-5.03-1.03-6.83-2.83c-1.79-1.8-2.83-4.29-2.83-6.83c0-2.54,1.04-5.03,2.83-6.83c1.8-1.79,4.29-2.83,6.83-2.83
				C160.918,79.93,163.409,80.97,165.199,82.76z"/>
		</g>
		<g>
		</g>
	</g>
</g>
<g>
</g>
<g>
</g>
<g>
</g>
<g>
</g>
<g>
</g>
<g>
</g>
<g>
</g>
<g>
</g>
<g>
</g>
<g>
</g>
<g>
</g>
<g>
</g>
<g>
</g>
<g>
</g>
<g>
</g>
</svg>
